<svg width="85" height="85" viewBox="0 0 85 85" fill="none" xmlns="http://www.w3.org/2000/svg">
<g clip-path="url(#clip0_4105_500)">
<rect x="0.5" y="0.5" width="84" height="84" rx="14.5" fill="white" fill-opacity="0.06" stroke="url(#paint0_linear_4105_500)"/>
<g filter="url(#filter0_fn_4105_500)">
<circle cx="12.466" cy="12.466" r="23.8" fill="#F6541C"/>
</g>
<g filter="url(#filter1_fn_4105_500)">
<circle cx="70.2659" cy="70.2659" r="26.0667" fill="#F6541C"/>
</g>
</g>
<path d="M49.6347 43.5176C51.0898 43.5176 52.0857 44.6087 52.6371 45.7255L54.2688 49.016C54.3269 49.0857 54.4051 49.1372 54.4862 49.1765L57.4333 49.6704C58.6564 49.8758 59.9374 50.5223 60.3684 51.8743C60.7987 53.224 60.1294 54.4953 59.2514 55.3754L56.961 57.6849C56.913 57.7639 56.8766 57.8903 56.8788 57.9828L57.5345 60.8412C57.8241 62.1087 57.8303 63.7812 56.5464 64.725C55.256 65.6734 53.6607 65.1543 52.5456 64.4902L49.7808 62.8401C49.6972 62.8163 49.5694 62.8159 49.4864 62.8428L46.727 64.49C45.6089 65.1587 44.0173 65.669 42.7286 64.7211C41.4474 63.7785 41.4461 62.111 41.7378 60.8399L42.3931 57.9828C42.3954 57.8903 42.3589 57.7639 42.3111 57.6849L40.0167 55.3717C39.1442 54.4918 38.4794 53.2244 38.9061 51.877C39.3347 50.5238 40.6148 49.876 41.8395 49.6702L44.778 49.178C44.8609 49.1416 44.9327 49.0822 44.9937 49.0162L46.6277 45.7215C47.1833 44.6064 48.1818 43.5176 49.6347 43.5176Z" fill="#F6541C" fill-opacity="0.8"/>
<path d="M63.4397 20.8445C64.5626 20.9964 65.884 21.4313 66.8051 22.6914C67.3492 23.436 67.5555 24.2735 67.6486 25.1374C67.7611 26.1824 67.7365 27.241 67.7365 28.2904C67.7367 31.0588 67.5424 33.6876 64.9942 35.3905C64.2277 35.9028 63.328 36.3223 62.7207 36.6379L55.8391 40.2155C54.5297 40.8962 53.4556 41.4548 52.5258 41.8356C51.5531 42.2341 50.6384 42.4826 49.634 42.4826C48.6298 42.4826 47.7151 42.2341 46.7423 41.8356C45.8126 41.4548 44.7384 40.8962 43.429 40.2155L36.5473 36.6379C32.6642 34.6192 31.5315 32.5818 31.5316 28.2905C31.5316 27.2411 31.507 26.1824 31.6195 25.1374C31.7126 24.2735 31.9189 23.436 32.4631 22.6914C33.3842 21.4313 34.7055 20.9964 35.8285 20.8445C36.6291 20.7363 37.5273 20.7568 38.2052 20.7722C40.9093 20.8339 43.6192 20.7812 46.3238 20.7812C46.9091 20.7812 47.2016 20.7812 47.3835 20.963C47.5651 21.1448 47.5651 21.4373 47.5651 22.0225V28.518C47.5651 29.6606 48.4916 30.5868 49.634 30.5868C50.7766 30.5868 51.7028 29.6606 51.7028 28.518V22.0225C51.7028 21.4373 51.7028 21.1448 51.8847 20.963C52.0665 20.7812 52.3591 20.7812 52.9442 20.7812C55.649 20.7812 58.3588 20.8339 61.063 20.7722C61.7407 20.7568 62.639 20.7363 63.4397 20.8445Z" fill="#F6541C" fill-opacity="0.8"/>
<g clip-path="url(#clip1_4105_500)">
<foreignObject x="23.334" y="33.373" width="41.1562" height="42.5684"><div xmlns="http://www.w3.org/1999/xhtml" style="backdrop-filter:blur(5px);clip-path:url(#bgblur_2_4105_500_clip_path);height:100%;width:100%"></div></foreignObject><path data-figma-bg-blur-radius="10" d="M41.2966 43.9725C42.4167 43.6301 43.5001 44.2186 44.3029 45.0713L44.3038 45.071L46.8266 47.7411L46.8663 47.7841L46.9158 47.8159C47.0726 47.9184 47.2389 47.961 47.3676 47.9811L47.4387 47.9931L47.5094 47.9837L50.472 47.5936C51.6177 47.4435 52.7939 47.6889 53.4468 48.6326C54.0986 49.5745 53.9151 50.7642 53.3721 51.7884L53.3714 51.7896L51.8567 54.6678L51.8288 54.7203L51.8138 54.7779C51.7696 54.9521 51.7708 55.1815 51.8327 55.3675L51.8485 55.4158L51.874 55.4591L53.3363 58.001C53.966 59.0975 54.3181 60.4372 53.5593 61.4559C52.845 62.4144 51.5816 62.5063 50.4168 62.2665L50.1852 62.2138L47.0591 61.4447L46.995 61.4286L46.93 61.4301L46.7901 61.4433C46.6459 61.4678 46.4918 61.5251 46.372 61.6089L46.3258 61.6414L46.2883 61.6824L44.1308 64.0648C43.2833 65.0021 42.1135 65.7411 40.9105 65.3189C39.7135 64.8986 39.2524 63.5957 39.1624 62.3334L38.9536 59.4092L38.9496 59.3594L38.9356 59.3105C38.8828 59.1214 38.7559 58.9302 38.6226 58.8109L38.5778 58.7715L38.5254 58.7436L35.6553 57.2019C34.6375 56.6553 33.8235 55.7741 33.8347 54.6306C33.8462 53.4833 34.6828 52.6215 35.7175 52.1045L38.3837 50.7747L38.4397 50.7474L38.4873 50.7063C38.625 50.5877 38.7134 50.4451 38.7705 50.3266L38.8009 50.2622L38.8129 50.1911L39.4122 46.5634C39.6055 45.4074 40.1777 44.3146 41.2966 43.9725Z" fill="url(#paint1_linear_4105_500)" fill-opacity="0.3" stroke="white"/>
<foreignObject x="8.41797" y="7.6875" width="56.3477" height="45.0938"><div xmlns="http://www.w3.org/1999/xhtml" style="backdrop-filter:blur(5px);clip-path:url(#bgblur_3_4105_500_clip_path);height:100%;width:100%"></div></foreignObject><path data-figma-bg-blur-radius="10" d="M23.7044 25.5673C26.3152 24.8338 28.909 23.9853 31.4826 23.1985C31.7757 23.1089 31.9481 23.0576 32.0754 23.0366C32.1236 23.0287 32.1514 23.0278 32.1658 23.0284C32.1743 23.0398 32.1899 23.0632 32.2108 23.1086C32.2646 23.2259 32.3185 23.3974 32.4081 23.6906L34.3071 29.9019C34.7219 31.2586 36.1579 32.0227 37.5144 31.6081C38.8712 31.1932 39.6351 29.7565 39.2203 28.3998L37.3213 22.1885C37.2317 21.8953 37.1795 21.7233 37.1585 21.5959C37.1504 21.5467 37.1502 21.5184 37.1509 21.5043C37.1624 21.4958 37.1863 21.481 37.2314 21.4603C37.3487 21.4064 37.5203 21.3526 37.8134 21.2629C40.3871 20.4761 43.0108 19.7294 45.5855 18.8776C46.236 18.6624 47.0518 18.393 47.8036 18.2699C48.8534 18.0981 50.0846 18.1379 51.181 18.9591C51.7396 19.3776 52.1146 19.9279 52.4174 20.5683L52.5429 20.8485C52.9424 21.7831 53.2183 22.7672 53.5301 23.7869C54.3423 26.4428 54.8315 28.7655 53.075 30.916C52.5149 31.6017 51.8129 32.2324 51.3024 32.7334L45.7671 38.1663C44.7082 39.2057 43.8622 40.0362 43.1059 40.6547C42.3215 41.2961 41.5766 41.7594 40.7 42.0275C39.8234 42.2954 38.9468 42.3279 37.9377 42.2348C36.9649 42.1449 35.799 41.9295 34.34 41.66L26.7139 40.2509C24.605 39.8612 23.214 39.2826 22.1978 38.3556C21.1799 37.4271 20.4798 36.0965 19.8633 34.0799C19.5515 33.0601 19.2297 32.0892 19.0383 31.0909C18.8827 30.279 18.8502 29.5169 19.1121 28.7635C19.5619 27.4696 20.5601 26.7481 21.5267 26.3036C22.2185 25.9853 23.0446 25.7527 23.7044 25.5673Z" fill="url(#paint2_linear_4105_500)" fill-opacity="0.3" stroke="white"/>
</g>
<defs>
<filter id="filter0_fn_4105_500" x="-51.334" y="-51.334" width="127.6" height="127.6" filterUnits="userSpaceOnUse" color-interpolation-filters="sRGB">
<feFlood flood-opacity="0" result="BackgroundImageFix"/>
<feBlend mode="normal" in="SourceGraphic" in2="BackgroundImageFix" result="shape"/>
<feGaussianBlur stdDeviation="20" result="effect1_foregroundBlur_4105_500"/>
<feTurbulence type="fractalNoise" baseFrequency="2 2" stitchTiles="stitch" numOctaves="3" result="noise" seed="9055" />
<feColorMatrix in="noise" type="luminanceToAlpha" result="alphaNoise" />
<feComponentTransfer in="alphaNoise" result="coloredNoise1">
<feFuncA type="discrete" tableValues="1 1 1 1 1 1 1 1 1 1 1 1 1 1 1 1 1 1 1 1 1 1 1 1 1 1 1 1 1 1 1 1 1 1 1 1 1 1 1 1 1 1 1 1 1 1 1 1 1 1 1 0 0 0 0 0 0 0 0 0 0 0 0 0 0 0 0 0 0 0 0 0 0 0 0 0 0 0 0 0 0 0 0 0 0 0 0 0 0 0 0 0 0 0 0 0 0 0 0 0 "/>
</feComponentTransfer>
<feComposite operator="in" in2="effect1_foregroundBlur_4105_500" in="coloredNoise1" result="noise1Clipped" />
<feFlood flood-color="rgba(0, 0, 0, 0.55)" result="color1Flood" />
<feComposite operator="in" in2="noise1Clipped" in="color1Flood" result="color1" />
<feMerge result="effect2_noise_4105_500">
<feMergeNode in="effect1_foregroundBlur_4105_500" />
<feMergeNode in="color1" />
</feMerge>
</filter>
<filter id="filter1_fn_4105_500" x="4.19922" y="4.19922" width="132.133" height="132.133" filterUnits="userSpaceOnUse" color-interpolation-filters="sRGB">
<feFlood flood-opacity="0" result="BackgroundImageFix"/>
<feBlend mode="normal" in="SourceGraphic" in2="BackgroundImageFix" result="shape"/>
<feGaussianBlur stdDeviation="20" result="effect1_foregroundBlur_4105_500"/>
<feTurbulence type="fractalNoise" baseFrequency="2 2" stitchTiles="stitch" numOctaves="3" result="noise" seed="9055" />
<feColorMatrix in="noise" type="luminanceToAlpha" result="alphaNoise" />
<feComponentTransfer in="alphaNoise" result="coloredNoise1">
<feFuncA type="discrete" tableValues="1 1 1 1 1 1 1 1 1 1 1 1 1 1 1 1 1 1 1 1 1 1 1 1 1 1 1 1 1 1 1 1 1 1 1 1 1 1 1 1 1 1 1 1 1 1 1 1 1 1 1 0 0 0 0 0 0 0 0 0 0 0 0 0 0 0 0 0 0 0 0 0 0 0 0 0 0 0 0 0 0 0 0 0 0 0 0 0 0 0 0 0 0 0 0 0 0 0 0 0 "/>
</feComponentTransfer>
<feComposite operator="in" in2="effect1_foregroundBlur_4105_500" in="coloredNoise1" result="noise1Clipped" />
<feFlood flood-color="rgba(0, 0, 0, 0.55)" result="color1Flood" />
<feComposite operator="in" in2="noise1Clipped" in="color1Flood" result="color1" />
<feMerge result="effect2_noise_4105_500">
<feMergeNode in="effect1_foregroundBlur_4105_500" />
<feMergeNode in="color1" />
</feMerge>
</filter>
<clipPath id="bgblur_2_4105_500_clip_path" transform="translate(-23.334 -33.373)"><path d="M41.2966 43.9725C42.4167 43.6301 43.5001 44.2186 44.3029 45.0713L44.3038 45.071L46.8266 47.7411L46.8663 47.7841L46.9158 47.8159C47.0726 47.9184 47.2389 47.961 47.3676 47.9811L47.4387 47.9931L47.5094 47.9837L50.472 47.5936C51.6177 47.4435 52.7939 47.6889 53.4468 48.6326C54.0986 49.5745 53.9151 50.7642 53.3721 51.7884L53.3714 51.7896L51.8567 54.6678L51.8288 54.7203L51.8138 54.7779C51.7696 54.9521 51.7708 55.1815 51.8327 55.3675L51.8485 55.4158L51.874 55.4591L53.3363 58.001C53.966 59.0975 54.3181 60.4372 53.5593 61.4559C52.845 62.4144 51.5816 62.5063 50.4168 62.2665L50.1852 62.2138L47.0591 61.4447L46.995 61.4286L46.93 61.4301L46.7901 61.4433C46.6459 61.4678 46.4918 61.5251 46.372 61.6089L46.3258 61.6414L46.2883 61.6824L44.1308 64.0648C43.2833 65.0021 42.1135 65.7411 40.9105 65.3189C39.7135 64.8986 39.2524 63.5957 39.1624 62.3334L38.9536 59.4092L38.9496 59.3594L38.9356 59.3105C38.8828 59.1214 38.7559 58.9302 38.6226 58.8109L38.5778 58.7715L38.5254 58.7436L35.6553 57.2019C34.6375 56.6553 33.8235 55.7741 33.8347 54.6306C33.8462 53.4833 34.6828 52.6215 35.7175 52.1045L38.3837 50.7747L38.4397 50.7474L38.4873 50.7063C38.625 50.5877 38.7134 50.4451 38.7705 50.3266L38.8009 50.2622L38.8129 50.1911L39.4122 46.5634C39.6055 45.4074 40.1777 44.3146 41.2966 43.9725Z"/>
</clipPath><clipPath id="bgblur_3_4105_500_clip_path" transform="translate(-8.41797 -7.6875)"><path d="M23.7044 25.5673C26.3152 24.8338 28.909 23.9853 31.4826 23.1985C31.7757 23.1089 31.9481 23.0576 32.0754 23.0366C32.1236 23.0287 32.1514 23.0278 32.1658 23.0284C32.1743 23.0398 32.1899 23.0632 32.2108 23.1086C32.2646 23.2259 32.3185 23.3974 32.4081 23.6906L34.3071 29.9019C34.7219 31.2586 36.1579 32.0227 37.5144 31.6081C38.8712 31.1932 39.6351 29.7565 39.2203 28.3998L37.3213 22.1885C37.2317 21.8953 37.1795 21.7233 37.1585 21.5959C37.1504 21.5467 37.1502 21.5184 37.1509 21.5043C37.1624 21.4958 37.1863 21.481 37.2314 21.4603C37.3487 21.4064 37.5203 21.3526 37.8134 21.2629C40.3871 20.4761 43.0108 19.7294 45.5855 18.8776C46.236 18.6624 47.0518 18.393 47.8036 18.2699C48.8534 18.0981 50.0846 18.1379 51.181 18.9591C51.7396 19.3776 52.1146 19.9279 52.4174 20.5683L52.5429 20.8485C52.9424 21.7831 53.2183 22.7672 53.5301 23.7869C54.3423 26.4428 54.8315 28.7655 53.075 30.916C52.5149 31.6017 51.8129 32.2324 51.3024 32.7334L45.7671 38.1663C44.7082 39.2057 43.8622 40.0362 43.1059 40.6547C42.3215 41.2961 41.5766 41.7594 40.7 42.0275C39.8234 42.2954 38.9468 42.3279 37.9377 42.2348C36.9649 42.1449 35.799 41.9295 34.34 41.66L26.7139 40.2509C24.605 39.8612 23.214 39.2826 22.1978 38.3556C21.1799 37.4271 20.4798 36.0965 19.8633 34.0799C19.5515 33.0601 19.2297 32.0892 19.0383 31.0909C18.8827 30.279 18.8502 29.5169 19.1121 28.7635C19.5619 27.4696 20.5601 26.7481 21.5267 26.3036C22.2185 25.9853 23.0446 25.7527 23.7044 25.5673Z"/>
</clipPath><linearGradient id="paint0_linear_4105_500" x1="0" y1="42.5" x2="85" y2="42.5" gradientUnits="userSpaceOnUse">
<stop stop-color="white" stop-opacity="0.18"/>
<stop offset="0.5" stop-color="white" stop-opacity="0"/>
<stop offset="1" stop-color="white" stop-opacity="0.18"/>
</linearGradient>
<linearGradient id="paint1_linear_4105_500" x1="41.1534" y1="43.4935" x2="47.5054" y2="64.27" gradientUnits="userSpaceOnUse">
<stop stop-color="white"/>
<stop offset="1" stop-color="white" stop-opacity="0"/>
</linearGradient>
<linearGradient id="paint2_linear_4105_500" x1="34.4953" y1="21.7321" x2="40.8464" y2="42.5057" gradientUnits="userSpaceOnUse">
<stop stop-color="white"/>
<stop offset="1" stop-color="white" stop-opacity="0"/>
</linearGradient>
<clipPath id="clip0_4105_500">
<rect width="85" height="85" rx="15" fill="white"/>
</clipPath>
<clipPath id="clip1_4105_500">
<rect width="49.6526" height="49.6526" fill="white" transform="translate(10 26.5176) rotate(-17)"/>
</clipPath>
</defs>
</svg>
