<svg width="44" height="44" viewBox="0 0 44 44" fill="none" xmlns="http://www.w3.org/2000/svg">
<path d="M12.834 17.416C14.3528 17.416 15.584 16.1848 15.584 14.666C15.584 13.1472 14.3528 11.916 12.834 11.916C11.3152 11.916 10.084 13.1472 10.084 14.666C10.084 16.1848 11.3152 17.416 12.834 17.416Z" stroke="#EFBA4E" stroke-width="2.5" stroke-linecap="round" stroke-linejoin="round"/>
<path d="M38.4951 20.1667C38.4993 21.0285 38.4993 21.9437 38.4993 22.9167C38.4993 31.1269 38.4993 35.2321 35.9488 37.7828C33.3981 40.3333 29.2929 40.3333 21.0827 40.3333C12.8724 40.3333 8.76725 40.3333 6.21662 37.7828C3.66602 35.2321 3.66602 31.1269 3.66602 22.9167C3.66602 14.7064 3.66602 10.6012 6.21662 8.05061C8.76725 5.5 12.8724 5.5 21.0827 5.5C22.0556 5.5 22.9708 5.5 23.8327 5.50424" stroke="#EFBA4E" stroke-width="2.5" stroke-linecap="round" stroke-linejoin="round"/>
<path d="M33.9167 3.66602L34.3895 4.9439C35.0095 6.61955 35.3195 7.45739 35.9308 8.06856C36.542 8.67976 37.3798 8.98978 39.0555 9.60983L40.3333 10.0827L39.0555 10.5555C37.3798 11.1756 36.542 11.4856 35.9308 12.0968C35.3195 12.708 35.0095 13.5458 34.3895 15.2215L33.9167 16.4993L33.4438 15.2215C32.8238 13.5458 32.5138 12.708 31.9026 12.0968C31.2913 11.4856 30.4535 11.1756 28.7778 10.5555L27.5 10.0827L28.7778 9.60983C30.4535 8.98978 31.2913 8.67976 31.9026 8.06856C32.5138 7.45739 32.8238 6.61955 33.4438 4.9439L33.9167 3.66602Z" stroke="#EFBA4E" stroke-width="2.5" stroke-linecap="round" stroke-linejoin="round"/>
<path d="M8.25 39.4158C16.2662 29.8368 25.2525 17.2033 38.4954 25.7437" stroke="#EFBA4E" stroke-width="2.5" stroke-linecap="round" stroke-linejoin="round"/>
</svg>
